<?xml version="1.0" encoding="UTF-8"?>
<svg width="800" height="800" viewBox="0 0 800 800" fill="none" xmlns="http://www.w3.org/2000/svg">
  <defs>
    <linearGradient id="petalsGradient" x1="0%" y1="0%" x2="100%" y2="100%">
      <stop offset="0%" style="stop-color:#FFB6A3"/>
      <stop offset="25%" style="stop-color:#FFA3B5"/>
      <stop offset="50%" style="stop-color:#FF9BC7"/>
      <stop offset="75%" style="stop-color:#E8A3FF"/>
      <stop offset="100%" style="stop-color:#C9A3FF"/>
    </linearGradient>
  </defs>
  <g transform="translate(100, 100) scale(0.75)">
    <!-- Flower petals -->
    <path d="M400 100 C500 200, 600 300, 400 500 C200 300, 300 200, 400 100" fill="url(#petalsGradient)" opacity="0.8" transform="rotate(0 400 300)"/>
    <path d="M400 100 C500 200, 600 300, 400 500 C200 300, 300 200, 400 100" fill="url(#petalsGradient)" opacity="0.8" transform="rotate(72 400 300)"/>
    <path d="M400 100 C500 200, 600 300, 400 500 C200 300, 300 200, 400 100" fill="url(#petalsGradient)" opacity="0.8" transform="rotate(144 400 300)"/>
    <path d="M400 100 C500 200, 600 300, 400 500 C200 300, 300 200, 400 100" fill="url(#petalsGradient)" opacity="0.8" transform="rotate(216 400 300)"/>
    <path d="M400 100 C500 200, 600 300, 400 500 C200 300, 300 200, 400 100" fill="url(#petalsGradient)" opacity="0.8" transform="rotate(288 400 300)"/>
    <!-- Center -->
    <circle cx="400" cy="300" r="20" fill="white"/>
  </g>
</svg> 